# xmcd
# 
# Track frame offsets:
#     150
#     15423
#     32330
#     52765
#     69620
#     99460
#     116450
#     133670
#     154085
#     170963
#     200795
# 
# Disc length: 2901
# 
# Revision: 2
# Processed by: cddbd v1.5.2PL0 Copyright (c) Steve Scherf et al.
# Submitted via: fre:ac v1.0.17
# 
DISCID=8e0b530b
DTITLE=Various Artist - むしまるQゴールド 2002年度＋α ホタル・カリフォルニア
DYEAR=2003
DGENRE=アニメ
TTITLE0=細川俊之、うらら(三石琴乃) - すてきなきみ
TTITLE1=岩本恭正 - あうんのドッグ
TTITLE2=オージー・ケン・ジュエル（馬場健二郎) - 燃えよ！クチバシ～カモノハシへの道～
TTITLE3=千葉繁＆ハムスターズ - ハムスター　ったら　ハムスター
TTITLE4=生沢佑一＆シーガルズ - ホタル・カリフォルニア
TTITLE5=阪口あやや - ウーパークィーンの宮殿
TTITLE6=岩本恭正 - オリジナル・カラオケ/あうんのドッグ
TTITLE7=オージー・ケン・ジュエル（馬場健二郎) - オリジナル・カラオケ/燃えよ！クチバシ～カモノハシへの道～
TTITLE8=千葉繁＆ハムスターズ - オリジナル・カラオケ/ハムスター　ったら　ハムスター
TTITLE9=生沢佑一＆シーガルズ - オリジナル・カラオケ/ホタル・カリフォルニア
TTITLE10=阪口あやや - オリジナル・カラオケ/ウーパークィーンの宮殿
EXTD=YEAR: 2003
EXTT0=
EXTT1=
EXTT2=
EXTT3=
EXTT4=
EXTT5=
EXTT6=
EXTT7=
EXTT8=
EXTT9=
EXTT10=
PLAYORDER=
